<svg xmlns="http://www.w3.org/2000/svg" xmlns:xlink="http://www.w3.org/1999/xlink" width="65" zoomAndPan="magnify" viewBox="0 0 48.75 48.75" height="65" preserveAspectRatio="xMidYMid meet" version="1.0"><defs><g/><clipPath id="63c6dcab69"><path d="M 0.414062 1 L 1.847656 1 L 1.847656 4 L 0.414062 4 Z M 0.414062 1 " clip-rule="nonzero"/></clipPath><clipPath id="8f68f42952"><rect x="0" width="2" y="0" height="5"/></clipPath><clipPath id="c19b1d70ae"><path d="M 6.125 12 L 41 12 L 41 47 L 6.125 47 Z M 6.125 12 " clip-rule="nonzero"/></clipPath></defs><g transform="matrix(1, 0, 0, 1, 28, 21)"><g clip-path="url(#8f68f42952)"><g clip-path="url(#63c6dcab69)"><g fill="#ffffff" fill-opacity="1"><g transform="translate(0.611866, 3.200897)"><g><path d="M 1.046875 -1.421875 L 1.046875 -1.28125 L 0.375 -1.28125 L 0.375 -0.765625 L 0.984375 -0.765625 L 0.984375 -0.625 L 0.375 -0.625 L 0.375 0 L 0.21875 0 L 0.21875 -1.421875 Z M 1.046875 -1.421875 "/></g></g></g></g></g></g><path fill="#f9a72b" d="M 9.269531 26.558594 C 9.238281 26.746094 9.207031 26.933594 9.183594 27.125 L 10.738281 27.15625 L 9.269531 26.558594 " fill-opacity="1" fill-rule="nonzero"/><path fill="#f9a72b" d="M 10.003906 23.945312 C 9.90625 24.183594 9.820312 24.425781 9.738281 24.671875 L 11.519531 25.441406 L 10.003906 23.945312 " fill-opacity="1" fill-rule="nonzero"/><path fill="#f9a72b" d="M 10.585938 22.683594 C 10.417969 23.003906 10.257812 23.332031 10.117188 23.667969 L 12.160156 25.050781 L 10.585938 22.683594 " fill-opacity="1" fill-rule="nonzero"/><path fill="#f9a72b" d="M 11.597656 21.0625 C 11.351562 21.398438 11.125 21.746094 10.910156 22.101562 L 12.902344 24.152344 L 11.597656 21.0625 " fill-opacity="1" fill-rule="nonzero"/><path fill="#f9a72b" d="M 9.511719 25.429688 C 9.449219 25.675781 9.390625 25.921875 9.339844 26.171875 L 11.183594 26.554688 L 9.511719 25.429688 " fill-opacity="1" fill-rule="nonzero"/><path fill="#f9a72b" d="M 9.105469 27.953125 C 9.09375 28.179688 9.085938 28.410156 9.082031 28.644531 L 10.855469 28.308594 L 9.105469 27.953125 " fill-opacity="1" fill-rule="nonzero"/><path fill="#f9a72b" d="M 17.921875 16.378906 C 16.078125 17.023438 14.421875 18.058594 13.054688 19.386719 L 14.675781 23.488281 L 14.664062 19.761719 L 15.40625 23.660156 L 16.6875 17.480469 L 16.570312 23.542969 L 17.996094 20.097656 L 17.179688 23.980469 L 20.75 18.757812 L 18.296875 24.316406 L 20.945312 21.675781 L 18.691406 24.953125 L 24.007812 21.480469 L 19.597656 25.6875 L 23.066406 24.25 L 19.714844 26.421875 L 25.96875 25.234375 L 20.269531 27.445312 L 24.027344 27.433594 L 20.09375 28.167969 L 26.328125 29.441406 L 20.210938 29.324219 L 23.6875 30.738281 L 19.769531 29.925781 L 19.960938 30.054688 C 20.078125 30.09375 20.191406 30.132812 20.304688 30.171875 C 22.757812 31.015625 25.160156 31.300781 27.484375 31.027344 C 27.585938 30.378906 27.636719 29.714844 27.636719 29.039062 C 27.636719 22.996094 23.523438 17.910156 17.921875 16.378906 " fill-opacity="1" fill-rule="nonzero"/><path fill="#f9a72b" d="M 9.085938 29.039062 C 9.085938 29.160156 9.089844 29.28125 9.097656 29.402344 C 9.402344 29.257812 9.726562 29.136719 10.070312 29.039062 L 9.085938 29.039062 " fill-opacity="1" fill-rule="nonzero"/><path fill="#f9a72b" d="M 12.792969 19.648438 C 12.378906 20.074219 11.996094 20.527344 11.640625 21.003906 L 13.644531 24.035156 L 12.792969 19.648438 " fill-opacity="1" fill-rule="nonzero"/><path fill="#51ade5" d="M 17.234375 40.890625 L 17.175781 39.449219 C 16.179688 39.335938 15.25 39.28125 14.394531 39.28125 C 15.265625 39.929688 16.21875 40.472656 17.234375 40.890625 " fill-opacity="1" fill-rule="nonzero"/><path fill="#51ade5" d="M 21.898438 39.640625 L 21.796875 37.167969 C 20.378906 36.839844 19.046875 36.589844 17.816406 36.417969 L 17.921875 38.914062 C 19.105469 39.070312 20.425781 39.304688 21.898438 39.640625 " fill-opacity="1" fill-rule="nonzero"/><path fill="#51ade5" d="M 17.019531 35.695312 L 16.914062 33.199219 C 15.738281 33.066406 14.660156 33.011719 13.679688 33.039062 C 13.433594 33.042969 13.195312 33.054688 12.960938 33.074219 L 13.066406 35.582031 C 14.152344 35.507812 15.457031 35.527344 17.019531 35.695312 " fill-opacity="1" fill-rule="nonzero"/><path fill="#51ade5" d="M 22.652344 39.300781 C 23.273438 38.8125 23.847656 38.265625 24.367188 37.671875 C 23.769531 37.582031 23.171875 37.472656 22.570312 37.34375 L 22.652344 39.300781 " fill-opacity="1" fill-rule="nonzero"/><path fill="#51ade5" d="M 17.683594 33.296875 L 17.789062 35.789062 C 18.972656 35.945312 20.292969 36.179688 21.769531 36.515625 L 21.664062 34.042969 C 20.246094 33.714844 18.917969 33.464844 17.683594 33.296875 " fill-opacity="1" fill-rule="nonzero"/><path fill="#51ade5" d="M 22.542969 36.695312 C 23.308594 36.867188 24.074219 37.003906 24.835938 37.113281 C 25.40625 36.390625 25.898438 35.613281 26.304688 34.785156 C 25.023438 34.6875 23.730469 34.5 22.4375 34.21875 L 22.542969 36.695312 " fill-opacity="1" fill-rule="nonzero"/><path fill="#51ade5" d="M 12.195312 33.148438 C 11.371094 33.253906 10.648438 33.429688 10.039062 33.675781 C 10.347656 34.4375 10.726562 35.160156 11.167969 35.84375 C 11.511719 35.769531 11.886719 35.703125 12.300781 35.652344 L 12.195312 33.148438 " fill-opacity="1" fill-rule="nonzero"/><path fill="#51ade5" d="M 18.015625 41.1875 C 18.269531 41.273438 18.53125 41.351562 18.792969 41.425781 C 19.71875 41.101562 20.59375 40.683594 21.410156 40.175781 C 20.183594 39.902344 19.027344 39.691406 17.945312 39.542969 L 18.015625 41.1875 " fill-opacity="1" fill-rule="nonzero"/><path fill="#51ade5" d="M 11.546875 36.398438 C 11.808594 36.757812 12.082031 37.101562 12.375 37.433594 L 12.328125 36.273438 C 12.054688 36.304688 11.796875 36.347656 11.546875 36.398438 " fill-opacity="1" fill-rule="nonzero"/><path fill="#51ade5" d="M 17.148438 38.820312 L 17.042969 36.324219 C 15.871094 36.191406 14.789062 36.136719 13.8125 36.164062 C 13.5625 36.167969 13.324219 36.179688 13.089844 36.195312 L 13.175781 38.261719 C 13.328125 38.40625 13.484375 38.542969 13.644531 38.679688 C 14.636719 38.640625 15.796875 38.675781 17.148438 38.820312 " fill-opacity="1" fill-rule="nonzero"/><path fill="#51ade5" d="M 27.089844 32.707031 L 27.09375 32.769531 C 27.101562 32.75 27.105469 32.726562 27.113281 32.703125 C 27.105469 32.707031 27.097656 32.707031 27.089844 32.707031 " fill-opacity="1" fill-rule="nonzero"/><path fill="#51ade5" d="M 26.328125 32.75 C 26.136719 32.757812 25.945312 32.761719 25.753906 32.761719 C 24.632812 32.761719 23.5 32.648438 22.363281 32.425781 L 22.414062 33.570312 C 23.742188 33.867188 25.070312 34.066406 26.386719 34.167969 L 26.328125 32.75 " fill-opacity="1" fill-rule="nonzero"/><path fill="#51ade5" d="M 19.761719 31.722656 C 18.988281 31.453125 18.265625 31.234375 17.589844 31.050781 L 17.660156 32.664062 C 18.84375 32.820312 20.164062 33.054688 21.636719 33.390625 L 21.589844 32.253906 C 20.980469 32.109375 20.375 31.929688 19.761719 31.722656 " fill-opacity="1" fill-rule="nonzero"/><path fill="#51ade5" d="M 12.078125 30.339844 C 10.964844 30.421875 10.167969 30.683594 9.601562 30.984375 C 9.492188 31.042969 9.394531 31.101562 9.300781 31.164062 C 9.425781 31.820312 9.597656 32.460938 9.8125 33.078125 C 10.421875 32.847656 11.191406 32.648438 12.171875 32.527344 L 12.078125 30.339844 " fill-opacity="1" fill-rule="nonzero"/><path fill="#51ade5" d="M 16.886719 32.570312 L 16.816406 30.851562 C 15.214844 30.46875 13.910156 30.316406 12.84375 30.316406 L 12.933594 32.457031 C 14.019531 32.382812 15.324219 32.402344 16.886719 32.570312 " fill-opacity="1" fill-rule="nonzero"/><path fill="#f68712" d="M 35.523438 27.609375 C 34.933594 20.898438 29.25 15.632812 22.328125 15.632812 C 20.78125 15.632812 19.300781 15.894531 17.921875 16.378906 C 23.523438 17.910156 27.636719 22.996094 27.636719 29.039062 C 27.636719 29.714844 27.585938 30.378906 27.484375 31.027344 C 29.398438 30.804688 31.257812 30.203125 33.058594 29.230469 C 34.023438 28.710938 34.847656 28.140625 35.523438 27.609375 " fill-opacity="1" fill-rule="nonzero"/><path fill="#3871c1" d="M 22.652344 39.300781 L 22.671875 39.820312 C 24.003906 40.117188 25.332031 40.316406 26.648438 40.417969 L 26.542969 37.917969 C 25.820312 37.863281 25.09375 37.785156 24.367188 37.671875 C 23.847656 38.265625 23.273438 38.8125 22.652344 39.300781 " fill-opacity="1" fill-rule="nonzero"/><path fill="#3871c1" d="M 26.515625 37.292969 L 26.410156 34.792969 C 26.375 34.789062 26.339844 34.785156 26.304688 34.785156 C 25.898438 35.613281 25.40625 36.390625 24.835938 37.113281 C 25.398438 37.1875 25.957031 37.25 26.515625 37.292969 " fill-opacity="1" fill-rule="nonzero"/><path fill="#3871c1" d="M 21.992188 41.894531 L 21.925781 40.292969 C 21.753906 40.253906 21.582031 40.214844 21.410156 40.175781 C 20.59375 40.683594 19.71875 41.101562 18.792969 41.425781 C 19.816406 41.703125 20.886719 41.867188 21.992188 41.894531 " fill-opacity="1" fill-rule="nonzero"/><path fill="#3871c1" d="M 29.355469 34.222656 C 29.9375 34.195312 30.519531 34.152344 31.097656 34.085938 L 31.007812 31.90625 C 29.953125 32.257812 28.875 32.5 27.78125 32.636719 C 27.558594 32.664062 27.335938 32.6875 27.113281 32.703125 C 27.105469 32.726562 27.101562 32.75 27.09375 32.769531 L 27.15625 34.214844 C 27.894531 34.25 28.628906 34.25 29.355469 34.222656 " fill-opacity="1" fill-rule="nonzero"/><path fill="#3871c1" d="M 22.699219 40.46875 L 22.761719 41.890625 C 24.128906 41.847656 25.445312 41.597656 26.679688 41.171875 L 26.671875 41.039062 C 25.355469 40.945312 24.03125 40.753906 22.699219 40.46875 " fill-opacity="1" fill-rule="nonzero"/><path fill="#3871c1" d="M 33.851562 30.667969 C 33.167969 31.039062 32.472656 31.359375 31.761719 31.632812 L 31.859375 33.988281 C 32.828125 33.847656 33.789062 33.648438 34.730469 33.390625 C 35.179688 32.210938 35.460938 30.949219 35.546875 29.632812 C 35.035156 29.984375 34.46875 30.335938 33.851562 30.667969 " fill-opacity="1" fill-rule="nonzero"/><path fill="#3871c1" d="M 29.511719 37.964844 C 28.785156 37.992188 28.050781 37.992188 27.3125 37.960938 L 27.414062 40.464844 C 27.714844 40.476562 28.007812 40.484375 28.304688 40.488281 C 29.390625 39.945312 30.390625 39.253906 31.28125 38.445312 L 31.253906 37.832031 C 30.675781 37.894531 30.09375 37.941406 29.511719 37.964844 " fill-opacity="1" fill-rule="nonzero"/><path fill="#3871c1" d="M 29.488281 37.34375 C 30.070312 37.320312 30.652344 37.277344 31.230469 37.210938 L 31.125 34.707031 C 30.546875 34.769531 29.964844 34.816406 29.382812 34.839844 C 28.652344 34.867188 27.917969 34.867188 27.179688 34.835938 L 27.285156 37.339844 C 28.023438 37.371094 28.757812 37.375 29.488281 37.34375 " fill-opacity="1" fill-rule="nonzero"/><path fill="#3871c1" d="M 31.886719 34.613281 L 31.992188 37.113281 C 32.207031 37.082031 32.425781 37.046875 32.640625 37.007812 C 33.355469 36.132812 33.957031 35.160156 34.429688 34.117188 C 33.601562 34.324219 32.761719 34.488281 31.914062 34.609375 C 31.90625 34.609375 31.894531 34.609375 31.886719 34.613281 " fill-opacity="1" fill-rule="nonzero"/><g clip-path="url(#c19b1d70ae)"><path fill="#80cc28" d="M 31.980469 14.988281 C 26.25 11.640625 19.34375 12.03125 14.136719 15.425781 C 18.921875 12.550781 25.101562 12.3125 30.257812 15.324219 C 37.730469 19.6875 40.21875 29.230469 35.816406 36.640625 C 31.414062 44.046875 21.789062 46.515625 14.316406 42.152344 C 9.160156 39.140625 6.375 33.660156 6.59375 28.121094 C 6.121094 34.28125 9.125 40.460938 14.855469 43.808594 C 22.882812 48.496094 33.226562 45.847656 37.953125 37.886719 C 42.683594 29.929688 40.011719 19.675781 31.980469 14.988281 " fill-opacity="1" fill-rule="nonzero"/></g><path fill="#80cc28" d="M 33.191406 6.777344 C 33.714844 10.535156 34.433594 13.226562 35.1875 15.160156 C 39.285156 12.539062 37.378906 7.757812 35.730469 5.21875 C 33.5 1.777344 34.410156 0 34.410156 0 C 34.410156 0 23.550781 10.214844 34.339844 15.558594 C 32.902344 11.40625 33.191406 6.777344 33.191406 6.777344 " fill-opacity="1" fill-rule="nonzero"/><path fill="#80cc28" d="M 22.699219 7.640625 C 24.632812 9.492188 26.207031 10.671875 27.472656 11.414062 C 28.585938 8.203125 25.4375 6.378906 23.417969 5.6875 C 20.679688 4.75 20.40625 3.375 20.40625 3.375 C 20.40625 3.375 18.878906 13.691406 27.175781 11.996094 C 24.566406 10.324219 22.699219 7.640625 22.699219 7.640625 " fill-opacity="1" fill-rule="nonzero"/></svg>