<svg xmlns="http://www.w3.org/2000/svg" xmlns:xlink="http://www.w3.org/1999/xlink" width="1920" zoomAndPan="magnify" viewBox="0 0 1440 525.000007" height="700" preserveAspectRatio="xMidYMid meet" version="1.0"><defs><g/><clipPath id="7857e68409"><path d="M 245 0.984375 L 333 0.984375 L 333 169 L 245 169 Z M 245 0.984375 " clip-rule="nonzero"/></clipPath><clipPath id="8b71e135da"><path d="M 388 174 L 1282.039062 174 L 1282.039062 407 L 388 407 Z M 388 174 " clip-rule="nonzero"/></clipPath><clipPath id="6cc2941883"><rect x="0" width="895" y="0" height="233"/></clipPath><clipPath id="f1a4463d9a"><path d="M 385 368 L 1270 368 L 1270 501.800781 L 385 501.800781 Z M 385 368 " clip-rule="nonzero"/></clipPath><clipPath id="6ace5f5ffa"><rect x="0" width="885" y="0" height="134"/></clipPath><clipPath id="56aee50e6e"><rect x="0" width="1283" y="0" height="502"/></clipPath></defs><g transform="matrix(1, 0, 0, 1, 27, 1)"><g clip-path="url(#56aee50e6e)"><path fill="#f9a72b" d="M 29.253906 286.820312 C 28.910156 288.847656 28.613281 290.886719 28.355469 292.941406 L 44.957031 293.261719 L 29.253906 286.820312 " fill-opacity="1" fill-rule="nonzero"/><path fill="#f9a72b" d="M 37.082031 258.726562 C 36.070312 261.285156 35.136719 263.878906 34.273438 266.507812 L 53.269531 274.8125 L 37.082031 258.726562 " fill-opacity="1" fill-rule="nonzero"/><path fill="#f9a72b" d="M 43.3125 245.113281 C 41.5 248.570312 39.824219 252.117188 38.300781 255.738281 L 60.105469 270.617188 L 43.3125 245.113281 " fill-opacity="1" fill-rule="nonzero"/><path fill="#f9a72b" d="M 54.113281 227.691406 C 51.5 231.292969 49.050781 235.023438 46.78125 238.875 L 68.007812 260.949219 L 54.113281 227.691406 " fill-opacity="1" fill-rule="nonzero"/><path fill="#f9a72b" d="M 31.863281 274.699219 C 31.171875 277.324219 30.558594 279.980469 30.023438 282.667969 L 49.667969 286.773438 L 31.863281 274.699219 " fill-opacity="1" fill-rule="nonzero"/><path fill="#f9a72b" d="M 27.53125 301.847656 C 27.378906 304.304688 27.292969 306.777344 27.269531 309.269531 L 46.207031 305.691406 L 27.53125 301.847656 " fill-opacity="1" fill-rule="nonzero"/><path fill="#f9a72b" d="M 121.582031 177.253906 C 101.917969 184.191406 84.242188 195.355469 69.65625 209.65625 L 86.933594 253.777344 L 86.8125 213.683594 L 94.738281 255.644531 L 108.433594 189.117188 L 107.164062 254.394531 L 122.390625 217.308594 L 113.65625 259.105469 L 151.769531 202.882812 L 125.617188 262.707031 L 153.875 234.269531 L 129.8125 269.542969 L 186.535156 232.1875 L 139.484375 277.445312 L 176.472656 261.988281 L 140.742188 285.371094 L 207.445312 272.566406 L 146.652344 296.375 L 186.746094 296.25 L 144.785156 304.171875 L 211.308594 317.871094 L 146.035156 316.601562 L 183.121094 331.828125 L 141.324219 323.09375 L 143.371094 324.480469 C 144.585938 324.890625 145.808594 325.308594 147.035156 325.730469 C 173.214844 334.816406 198.824219 337.886719 223.652344 334.953125 C 224.714844 327.960938 225.269531 320.804688 225.269531 313.515625 C 225.269531 248.496094 181.363281 193.730469 121.582031 177.253906 " fill-opacity="1" fill-rule="nonzero"/><path fill="#f9a72b" d="M 27.292969 313.546875 C 27.320312 314.851562 27.367188 316.148438 27.425781 317.441406 C 30.671875 315.902344 34.136719 314.597656 37.804688 313.515625 L 27.292969 313.546875 " fill-opacity="1" fill-rule="nonzero"/><path fill="#f9a72b" d="M 66.867188 212.472656 C 62.457031 217.046875 58.347656 221.917969 54.578125 227.050781 L 75.933594 259.6875 L 66.867188 212.472656 " fill-opacity="1" fill-rule="nonzero"/><path fill="#51ade5" d="M 114.277344 441.121094 L 113.632812 425.570312 C 102.992188 424.363281 93.082031 423.765625 83.9375 423.777344 C 93.230469 430.742188 103.410156 436.589844 114.277344 441.121094 " fill-opacity="1" fill-rule="nonzero"/><path fill="#51ade5" d="M 164.039062 427.640625 L 162.933594 401.035156 C 147.804688 397.484375 133.621094 394.796875 120.460938 392.976562 L 121.574219 419.8125 C 134.210938 421.492188 148.308594 424.027344 164.039062 427.640625 " fill-opacity="1" fill-rule="nonzero"/><path fill="#51ade5" d="M 111.957031 385.1875 L 110.84375 358.308594 C 98.3125 356.882812 86.785156 356.300781 76.335938 356.574219 C 73.695312 356.644531 71.140625 356.773438 68.648438 356.953125 L 69.769531 383.957031 C 81.363281 383.148438 95.28125 383.378906 111.957031 385.1875 " fill-opacity="1" fill-rule="nonzero"/><path fill="#51ade5" d="M 172.070312 424.003906 C 178.6875 418.71875 184.820312 412.851562 190.390625 406.476562 C 184.003906 405.503906 177.601562 404.328125 171.195312 402.929688 L 172.070312 424.003906 " fill-opacity="1" fill-rule="nonzero"/><path fill="#51ade5" d="M 119.070312 359.34375 L 120.179688 386.183594 C 132.816406 387.855469 146.914062 390.398438 162.644531 394.007812 L 161.539062 367.402344 C 146.410156 363.855469 132.226562 361.164062 119.070312 359.34375 " fill-opacity="1" fill-rule="nonzero"/><path fill="#51ade5" d="M 170.90625 395.933594 C 179.082031 397.785156 187.253906 399.28125 195.394531 400.421875 C 201.441406 392.675781 206.699219 384.285156 211.046875 375.367188 C 197.378906 374.324219 183.597656 372.300781 169.800781 369.300781 L 170.90625 395.933594 " fill-opacity="1" fill-rule="nonzero"/><path fill="#51ade5" d="M 60.5 357.75 C 51.691406 358.882812 43.996094 360.78125 37.476562 363.433594 C 40.777344 371.621094 44.828125 379.433594 49.539062 386.777344 C 53.195312 385.964844 57.210938 385.265625 61.617188 384.726562 L 60.5 357.75 " fill-opacity="1" fill-rule="nonzero"/><path fill="#51ade5" d="M 122.589844 444.28125 C 125.324219 445.222656 128.097656 446.078125 130.90625 446.851562 C 140.753906 443.382812 150.105469 438.855469 158.816406 433.402344 C 145.742188 430.472656 133.402344 428.207031 121.855469 426.609375 L 122.589844 444.28125 " fill-opacity="1" fill-rule="nonzero"/><path fill="#51ade5" d="M 53.582031 392.746094 C 56.339844 396.605469 59.289062 400.316406 62.410156 403.871094 L 61.894531 391.382812 C 59 391.753906 56.230469 392.210938 53.582031 392.746094 " fill-opacity="1" fill-rule="nonzero"/><path fill="#51ade5" d="M 113.351562 418.824219 L 112.238281 391.941406 C 99.703125 390.511719 88.179688 389.933594 77.730469 390.210938 C 75.089844 390.277344 72.535156 390.40625 70.042969 390.582031 L 70.964844 412.789062 C 72.585938 414.34375 74.25 415.851562 75.941406 417.324219 C 86.53125 416.875 98.902344 417.25 113.351562 418.824219 " fill-opacity="1" fill-rule="nonzero"/><path fill="#51ade5" d="M 219.445312 353.007812 L 219.476562 353.695312 C 219.546875 353.457031 219.613281 353.222656 219.679688 352.988281 C 219.601562 352.996094 219.523438 353 219.445312 353.007812 " fill-opacity="1" fill-rule="nonzero"/><path fill="#51ade5" d="M 211.28125 353.480469 C 209.246094 353.554688 207.203125 353.59375 205.160156 353.59375 C 193.207031 353.59375 181.132812 352.382812 169 349.976562 L 169.511719 362.300781 C 183.703125 365.515625 197.875 367.660156 211.914062 368.734375 L 211.28125 353.480469 " fill-opacity="1" fill-rule="nonzero"/><path fill="#51ade5" d="M 141.25 342.402344 C 132.984375 339.535156 125.273438 337.148438 118.066406 335.179688 L 118.785156 352.546875 C 131.421875 354.226562 145.523438 356.769531 161.25 360.378906 L 160.742188 348.152344 C 154.253906 346.578125 147.753906 344.660156 141.25 342.402344 " fill-opacity="1" fill-rule="nonzero"/><path fill="#51ade5" d="M 59.246094 327.546875 C 47.34375 328.429688 38.832031 331.226562 32.804688 334.488281 C 31.660156 335.105469 30.597656 335.75 29.613281 336.402344 C 30.921875 343.472656 32.757812 350.367188 35.074219 357.027344 C 41.554688 354.527344 49.792969 352.371094 60.222656 351.097656 L 59.246094 327.546875 " fill-opacity="1" fill-rule="nonzero"/><path fill="#51ade5" d="M 110.5625 351.558594 L 109.796875 333.039062 C 92.722656 328.910156 78.78125 327.28125 67.417969 327.265625 L 68.375 350.324219 C 79.96875 349.519531 93.886719 349.746094 110.5625 351.558594 " fill-opacity="1" fill-rule="nonzero"/><path fill="#f68712" d="M 309.433594 298.15625 C 303.136719 225.910156 242.496094 169.238281 168.617188 169.238281 C 152.128906 169.238281 136.296875 172.0625 121.582031 177.253906 C 181.363281 193.730469 225.269531 248.496094 225.269531 313.515625 C 225.269531 320.804688 224.714844 327.960938 223.652344 334.953125 C 244.046875 332.542969 263.914062 326.082031 283.140625 315.585938 C 293.402344 309.980469 302.203125 303.871094 309.433594 298.15625 " fill-opacity="1" fill-rule="nonzero"/><path fill="#3871c1" d="M 172.070312 424.003906 L 172.300781 429.5625 C 186.488281 432.777344 200.667969 434.929688 214.703125 436 L 213.589844 409.085938 C 205.886719 408.53125 198.148438 407.660156 190.390625 406.476562 C 184.820312 412.851562 178.6875 418.71875 172.070312 424.003906 " fill-opacity="1" fill-rule="nonzero"/><path fill="#3871c1" d="M 213.308594 402.367188 L 212.195312 375.457031 C 211.8125 375.429688 211.429688 375.398438 211.046875 375.367188 C 206.699219 384.285156 201.441406 392.675781 195.394531 400.421875 C 201.386719 401.265625 207.359375 401.914062 213.308594 402.367188 " fill-opacity="1" fill-rule="nonzero"/><path fill="#3871c1" d="M 165.042969 451.902344 L 164.328125 434.667969 C 162.476562 434.234375 160.640625 433.808594 158.816406 433.402344 C 150.105469 438.855469 140.753906 443.382812 130.90625 446.851562 C 141.8125 449.863281 153.25 451.609375 165.042969 451.902344 " fill-opacity="1" fill-rule="nonzero"/><path fill="#3871c1" d="M 243.617188 369.308594 C 249.824219 369.050781 256.046875 368.5625 262.199219 367.863281 L 261.226562 344.386719 C 249.96875 348.164062 238.472656 350.800781 226.824219 352.25 C 224.445312 352.546875 222.066406 352.789062 219.679688 352.988281 C 219.613281 353.222656 219.546875 353.457031 219.476562 353.695312 L 220.121094 369.238281 C 228.007812 369.605469 235.847656 369.632812 243.617188 369.308594 " fill-opacity="1" fill-rule="nonzero"/><path fill="#3871c1" d="M 172.589844 436.5625 L 173.226562 451.871094 C 187.832031 451.402344 201.878906 448.722656 215.039062 444.144531 L 214.984375 442.722656 C 200.9375 441.703125 186.773438 439.648438 172.589844 436.5625 " fill-opacity="1" fill-rule="nonzero"/><path fill="#3871c1" d="M 291.597656 331.074219 C 284.300781 335.0625 276.855469 338.527344 269.285156 341.46875 L 270.339844 366.808594 C 280.683594 365.292969 290.902344 363.144531 300.949219 360.378906 C 305.738281 347.667969 308.742188 334.082031 309.667969 319.933594 C 304.207031 323.703125 298.179688 327.480469 291.597656 331.074219 " fill-opacity="1" fill-rule="nonzero"/><path fill="#3871c1" d="M 245.289062 409.59375 C 237.515625 409.917969 229.675781 409.902344 221.792969 409.5625 L 222.90625 436.503906 C 226.078125 436.652344 229.238281 436.738281 232.386719 436.777344 C 243.980469 430.90625 254.660156 423.484375 264.144531 414.785156 L 263.871094 408.175781 C 257.710938 408.859375 251.492188 409.339844 245.289062 409.59375 " fill-opacity="1" fill-rule="nonzero"/><path fill="#3871c1" d="M 245.011719 402.941406 C 251.21875 402.6875 257.441406 402.199219 263.59375 401.5 L 262.476562 374.542969 C 256.320312 375.226562 250.097656 375.703125 243.890625 375.960938 C 236.121094 376.285156 228.28125 376.273438 220.398438 375.929688 L 221.511719 402.871094 C 229.402344 403.238281 237.242188 403.265625 245.011719 402.941406 " fill-opacity="1" fill-rule="nonzero"/><path fill="#3871c1" d="M 270.617188 373.515625 L 271.734375 400.4375 C 274.046875 400.101562 276.355469 399.726562 278.65625 399.328125 C 286.289062 389.875 292.726562 379.417969 297.738281 368.191406 C 288.910156 370.410156 279.960938 372.175781 270.910156 373.476562 C 270.8125 373.488281 270.714844 373.5 270.617188 373.515625 " fill-opacity="1" fill-rule="nonzero"/><path fill="#82c91e" d="M 271.636719 162.273438 C 210.488281 126.25 136.757812 130.476562 81.207031 167 C 132.253906 136.078125 198.21875 133.476562 253.242188 165.894531 C 332.988281 212.875 359.546875 315.601562 312.570312 395.347656 C 265.589844 475.085938 162.859375 501.648438 83.117188 454.667969 C 28.09375 422.25 -1.609375 363.289062 0.699219 303.652344 C -4.320312 369.945312 27.714844 436.484375 88.863281 472.507812 C 174.53125 522.980469 284.894531 494.445312 335.363281 408.777344 C 385.839844 323.105469 357.304688 212.742188 271.636719 162.273438 " fill-opacity="1" fill-rule="nonzero"/><g clip-path="url(#7857e68409)"><path fill="#82c91e" d="M 284.558594 73.894531 C 290.128906 114.347656 297.785156 143.347656 305.84375 164.144531 C 349.574219 135.945312 329.222656 84.445312 311.644531 57.128906 C 287.820312 20.109375 297.5625 0.984375 297.5625 0.984375 C 297.5625 0.984375 181.671875 110.925781 296.78125 168.417969 C 281.449219 123.753906 284.558594 73.894531 284.558594 73.894531 " fill-opacity="1" fill-rule="nonzero"/></g><path fill="#82c91e" d="M 172.5625 83.199219 C 193.203125 103.121094 210.019531 115.816406 223.496094 123.804688 C 235.40625 89.246094 201.8125 69.636719 180.246094 62.183594 C 151.015625 52.078125 148.097656 37.285156 148.097656 37.285156 C 148.097656 37.285156 131.820312 148.316406 220.351562 130.097656 C 192.496094 112.085938 172.5625 83.199219 172.5625 83.199219 " fill-opacity="1" fill-rule="nonzero"/><g clip-path="url(#8b71e135da)"><g transform="matrix(1, 0, 0, 1, 388, 174)"><g clip-path="url(#6cc2941883)"><g fill="#82c91e" fill-opacity="1"><g transform="translate(2.281585, 167.114513)"><g><path d="M 128.34375 -152.578125 L 128.34375 -54.1875 C 128.34375 -35.445312 123.285156 -21.265625 113.171875 -11.640625 C 103.066406 -2.023438 88.273438 2.78125 68.796875 2.78125 C 49.316406 2.78125 34.519531 -2.023438 24.40625 -11.640625 C 14.300781 -21.265625 9.25 -35.445312 9.25 -54.1875 L 9.25 -152.578125 L 44.015625 -152.578125 L 44.015625 -64.359375 C 44.015625 -52.023438 45.957031 -43.453125 49.84375 -38.640625 C 53.726562 -33.835938 60.046875 -31.4375 68.796875 -31.4375 C 77.546875 -31.4375 83.863281 -33.835938 87.75 -38.640625 C 91.632812 -43.453125 93.578125 -52.023438 93.578125 -64.359375 L 93.578125 -152.578125 Z M 128.34375 -152.578125 "/></g></g></g><g fill="#82c91e" fill-opacity="1"><g transform="translate(171.486605, 167.114513)"><g><path d="M 45.859375 -94.6875 L 45.859375 0 L 11.09375 0 L 11.09375 -152.578125 L 45.859375 -152.578125 L 106.53125 -57.890625 L 106.890625 -57.890625 L 106.890625 -152.578125 L 141.65625 -152.578125 L 141.65625 0 L 106.890625 0 L 46.234375 -94.6875 Z M 45.859375 -94.6875 "/></g></g></g><g fill="#82c91e" fill-opacity="1"><g transform="translate(355.854828, 167.114513)"><g><path d="M 45.859375 -152.578125 L 45.859375 0 L 11.09375 0 L 11.09375 -152.578125 Z M 45.859375 -152.578125 "/></g></g></g><g fill="#82c91e" fill-opacity="1"><g transform="translate(444.436056, 167.114513)"><g><path d="M 1.484375 -122.0625 L 1.484375 -152.578125 L 108.75 -152.578125 L 108.75 -122.0625 L 72.5 -122.0625 L 72.5 0 L 37.734375 0 L 37.734375 -122.0625 Z M 1.484375 -122.0625 "/></g></g></g><g fill="#82c91e" fill-opacity="1"><g transform="translate(586.273378, 167.114513)"><g><path d="M 98.390625 -152.578125 L 98.390625 -122.0625 L 45.859375 -122.0625 L 45.859375 -91.734375 L 96.171875 -91.734375 L 96.171875 -61.21875 L 45.859375 -61.21875 L 45.859375 -30.515625 L 98.390625 -30.515625 L 98.390625 0 L 11.09375 0 L 11.09375 -152.578125 Z M 98.390625 -152.578125 "/></g></g></g><g fill="#82c91e" fill-opacity="1"><g transform="translate(725.152028, 167.114513)"><g><path d="M 11.09375 -152.578125 L 55.296875 -152.578125 C 76.503906 -152.578125 94.628906 -145.332031 109.671875 -130.84375 C 124.710938 -116.351562 132.234375 -98.195312 132.234375 -76.375 C 132.234375 -54.425781 124.742188 -36.207031 109.765625 -21.71875 C 94.785156 -7.238281 76.628906 0 55.296875 0 L 11.09375 0 Z M 45.859375 -31.0625 L 51.234375 -31.0625 C 63.929688 -31.0625 74.316406 -35.347656 82.390625 -43.921875 C 90.460938 -52.492188 94.5625 -63.25 94.6875 -76.1875 C 94.6875 -89.132812 90.648438 -99.921875 82.578125 -108.546875 C 74.503906 -117.179688 64.054688 -121.5 51.234375 -121.5 L 45.859375 -121.5 Z M 45.859375 -31.0625 "/></g></g></g></g></g></g><g clip-path="url(#f1a4463d9a)"><g transform="matrix(1, 0, 0, 1, 385, 368)"><g clip-path="url(#6ace5f5ffa)"><g fill="#51ade5" fill-opacity="1"><g transform="translate(2.620017, 98.447803)"><g><path d="M 40.109375 0 L 26.171875 -25.3125 L 22.25 -25.3125 L 22.25 0 L 5.921875 0 L 5.921875 -67.046875 L 33.328125 -67.046875 C 38.617188 -67.046875 43.125 -66.125 46.84375 -64.28125 C 50.570312 -62.4375 53.359375 -59.90625 55.203125 -56.6875 C 57.054688 -53.46875 57.984375 -49.882812 57.984375 -45.9375 C 57.984375 -41.476562 56.722656 -37.5 54.203125 -34 C 51.691406 -30.5 47.984375 -28.015625 43.078125 -26.546875 L 58.546875 0 Z M 22.25 -36.875 L 32.375 -36.875 C 35.375 -36.875 37.617188 -37.601562 39.109375 -39.0625 C 40.609375 -40.53125 41.359375 -42.601562 41.359375 -45.28125 C 41.359375 -47.820312 40.609375 -49.820312 39.109375 -51.28125 C 37.617188 -52.75 35.375 -53.484375 32.375 -53.484375 L 22.25 -53.484375 Z M 22.25 -36.875 "/></g></g></g><g fill="#51ade5" fill-opacity="1"><g transform="translate(91.260798, 98.447803)"><g><path d="M 22.25 -53.96875 L 22.25 -40.40625 L 44.125 -40.40625 L 44.125 -27.796875 L 22.25 -27.796875 L 22.25 -13.078125 L 47 -13.078125 L 47 0 L 5.921875 0 L 5.921875 -67.046875 L 47 -67.046875 L 47 -53.96875 Z M 22.25 -53.96875 "/></g></g></g><g fill="#51ade5" fill-opacity="1"><g transform="translate(169.300445, 98.447803)"><g><path d="M 81.859375 -67.046875 L 81.859375 0 L 65.53125 0 L 65.53125 -40.21875 L 50.53125 0 L 37.34375 0 L 22.25 -40.3125 L 22.25 0 L 5.921875 0 L 5.921875 -67.046875 L 25.21875 -67.046875 L 44.03125 -20.625 L 62.65625 -67.046875 Z M 81.859375 -67.046875 "/></g></g></g><g fill="#51ade5" fill-opacity="1"><g transform="translate(283.345743, 98.447803)"><g><path d="M 37.640625 0.671875 C 31.328125 0.671875 25.546875 -0.789062 20.296875 -3.71875 C 15.046875 -6.65625 10.875 -10.75 7.78125 -16 C 4.695312 -21.25 3.15625 -27.15625 3.15625 -33.71875 C 3.15625 -40.28125 4.695312 -46.171875 7.78125 -51.390625 C 10.875 -56.609375 15.046875 -60.679688 20.296875 -63.609375 C 25.546875 -66.535156 31.328125 -68 37.640625 -68 C 43.941406 -68 49.71875 -66.535156 54.96875 -63.609375 C 60.21875 -60.679688 64.351562 -56.609375 67.375 -51.390625 C 70.40625 -46.171875 71.921875 -40.28125 71.921875 -33.71875 C 71.921875 -27.15625 70.390625 -21.25 67.328125 -16 C 64.273438 -10.75 60.140625 -6.65625 54.921875 -3.71875 C 49.703125 -0.789062 43.941406 0.671875 37.640625 0.671875 Z M 37.640625 -14.234375 C 42.984375 -14.234375 47.257812 -16.015625 50.46875 -19.578125 C 53.6875 -23.140625 55.296875 -27.851562 55.296875 -33.71875 C 55.296875 -39.632812 53.6875 -44.359375 50.46875 -47.890625 C 47.257812 -51.429688 42.984375 -53.203125 37.640625 -53.203125 C 32.222656 -53.203125 27.90625 -51.453125 24.6875 -47.953125 C 21.476562 -44.453125 19.875 -39.707031 19.875 -33.71875 C 19.875 -27.789062 21.476562 -23.0625 24.6875 -19.53125 C 27.90625 -16 32.222656 -14.234375 37.640625 -14.234375 Z M 37.640625 -14.234375 "/></g></g></g><g fill="#51ade5" fill-opacity="1"><g transform="translate(384.784258, 98.447803)"><g><path d="M 31.046875 -67.046875 C 38.109375 -67.046875 44.28125 -65.644531 49.5625 -62.84375 C 54.851562 -60.039062 58.945312 -56.109375 61.84375 -51.046875 C 64.738281 -45.984375 66.1875 -40.144531 66.1875 -33.53125 C 66.1875 -26.96875 64.738281 -21.140625 61.84375 -16.046875 C 58.945312 -10.953125 54.835938 -7.003906 49.515625 -4.203125 C 44.203125 -1.398438 38.046875 0 31.046875 0 L 5.921875 0 L 5.921875 -67.046875 Z M 29.984375 -14.140625 C 36.160156 -14.140625 40.96875 -15.828125 44.40625 -19.203125 C 47.851562 -22.578125 49.578125 -27.351562 49.578125 -33.53125 C 49.578125 -39.707031 47.851562 -44.515625 44.40625 -47.953125 C 40.96875 -51.390625 36.160156 -53.109375 29.984375 -53.109375 L 22.25 -53.109375 L 22.25 -14.140625 Z M 29.984375 -14.140625 "/></g></g></g><g fill="#51ade5" fill-opacity="1"><g transform="translate(480.587957, 98.447803)"><g><path d="M 22.25 -53.96875 L 22.25 -40.40625 L 44.125 -40.40625 L 44.125 -27.796875 L 22.25 -27.796875 L 22.25 -13.078125 L 47 -13.078125 L 47 0 L 5.921875 0 L 5.921875 -67.046875 L 47 -67.046875 L 47 -53.96875 Z M 22.25 -53.96875 "/></g></g></g><g fill="#51ade5" fill-opacity="1"><g transform="translate(558.627605, 98.447803)"><g><path d="M 22.25 -12.609375 L 43.65625 -12.609375 L 43.65625 0 L 5.921875 0 L 5.921875 -67.046875 L 22.25 -67.046875 Z M 22.25 -12.609375 "/></g></g></g><g fill="#51ade5" fill-opacity="1"><g transform="translate(630.554888, 98.447803)"><g><path d="M 22.25 -67.046875 L 22.25 0 L 5.921875 0 L 5.921875 -67.046875 Z M 22.25 -67.046875 "/></g></g></g><g fill="#51ade5" fill-opacity="1"><g transform="translate(685.100175, 98.447803)"><g><path d="M 65.90625 0 L 49.578125 0 L 22.25 -41.359375 L 22.25 0 L 5.921875 0 L 5.921875 -67.046875 L 22.25 -67.046875 L 49.578125 -25.5 L 49.578125 -67.046875 L 65.90625 -67.046875 Z M 65.90625 0 "/></g></g></g><g fill="#51ade5" fill-opacity="1"><g transform="translate(783.291501, 98.447803)"><g><path d="M 50.4375 -45.84375 C 49.226562 -48.070312 47.488281 -49.773438 45.21875 -50.953125 C 42.957031 -52.128906 40.300781 -52.71875 37.25 -52.71875 C 31.96875 -52.71875 27.734375 -50.984375 24.546875 -47.515625 C 21.359375 -44.046875 19.765625 -39.414062 19.765625 -33.625 C 19.765625 -27.445312 21.4375 -22.617188 24.78125 -19.140625 C 28.125 -15.671875 32.726562 -13.9375 38.59375 -13.9375 C 42.601562 -13.9375 45.992188 -14.957031 48.765625 -17 C 51.535156 -19.039062 53.554688 -21.972656 54.828125 -25.796875 L 34.09375 -25.796875 L 34.09375 -37.828125 L 69.625 -37.828125 L 69.625 -22.640625 C 68.414062 -18.566406 66.363281 -14.773438 63.46875 -11.265625 C 60.570312 -7.765625 56.894531 -4.929688 52.4375 -2.765625 C 47.976562 -0.597656 42.945312 0.484375 37.34375 0.484375 C 30.71875 0.484375 24.8125 -0.960938 19.625 -3.859375 C 14.4375 -6.765625 10.394531 -10.796875 7.5 -15.953125 C 4.601562 -21.109375 3.15625 -27 3.15625 -33.625 C 3.15625 -40.25 4.601562 -46.15625 7.5 -51.34375 C 10.394531 -56.53125 14.421875 -60.570312 19.578125 -63.46875 C 24.734375 -66.363281 30.625 -67.8125 37.25 -67.8125 C 45.269531 -67.8125 52.035156 -65.867188 57.546875 -61.984375 C 63.054688 -58.097656 66.703125 -52.71875 68.484375 -45.84375 Z M 50.4375 -45.84375 "/></g></g></g></g></g></g></g></g></svg>